<svg xmlns="http://www.w3.org/2000/svg" viewBox="0 0 104 14"><defs/><defs><style>.cls-1{fill:#fff;fill-rule:evenodd}</style></defs><g id="レイヤー_2" data-name="layer2"><g id="layer_1-2" data-name="layer1"><path class="cls-1" d="M0 11.6s3 .4 4.61-3.3S8 .06 8 .06h5.53l3.05 8.31s.62 1.9 1.45 2.36a6.65 6.65 0 002.97.67v1.71h-9.86v-1.38a1.4 1.4 0 001.44-1.5c0-.47-2.1-5.88-2.1-5.88S8 9.77 8 10.15s-.29 1.31 1.25 1.31v1.65H0zM48 11.6s3 .39 4.61-3.3S56 .06 56 .06h5.53l3 8.31s.62 1.9 1.45 2.36a6.71 6.71 0 002.89.67v1.71h-9.76v-1.38a1.4 1.4 0 001.45-1.5c0-.47-2.11-5.88-2.11-5.88S56 9.77 56 10.15s-.29 1.31 1.25 1.31v1.65H48zM83.05 11.6s3 .39 4.61-3.3S91.09.06 91.09.06h5.53l3 8.31s.62 1.9 1.46 2.36a6.65 6.65 0 002.88.67v1.71h-9.78v-1.38a1.4 1.4 0 001.45-1.5c0-.47-2.11-5.88-2.11-5.88s-2.43 5.42-2.5 5.8-.29 1.31 1.25 1.31v1.65h-9.22zM64.7.06v2.47a3 3 0 013.13 2.24l2.6 8.34h4.81l.66-2.44.86 2.44h4.74L83.28 5s0-2.57 3.43-2.57V.06H78.8v2.12s2.2-.05.79 3.82l-1.65-6h-3.23l-1.58 6.13s-1.8-3.44.86-3.95V.06zM33.21 0v5.27h3.36s.22-3.09 2.48-3.09h2.24l-5.12 6.65s-1.67 2-3 2v2.24h14.5V8.24H44s.3 3.07-2.5 3.07h-1.32l5.22-6.83s1.24-1.78 2.37-1.78V0zM22.14 13.11V11.4c2.56.36 2.63-1.47 2.63-1.47v-5.9c0-2.36-2.67-1.79-2.67-1.79V.06h10v2.18S29.46 1.67 29.42 4s0 5.9 0 5.9.08 1.83 2.64 1.47v1.71z"/></g></g></svg>